# 3ds Max Wavefront OBJ Exporter v0.97b - (c)2007 guruware
# File Created: 19.05.2018 17:21:35

#
# object Box008
#

v  -14.7944 9.7983 -0.5408
v  14.7944 9.7983 -0.5408
v  14.7944 -9.7984 -0.5408
v  -14.7944 -9.7984 -0.5408
v  14.7944 -9.7984 0.5408
v  14.7944 9.7983 0.5408
v  -14.7944 9.7983 0.5408
v  -14.7944 -9.7984 0.5408
# 8 vertices

vn -0.5774 0.5774 -0.5774
vn 0.5774 0.5774 -0.5774
vn 0.5774 -0.5774 -0.5774
vn -0.5774 -0.5774 -0.5774
vn 0.5774 -0.5774 0.5774
vn 0.5774 0.5774 0.5774
vn -0.5774 0.5774 0.5774
vn -0.5774 -0.5774 0.5774
# 8 vertex normals

o Box008
g Box008
f 1//1 2//2 3//3 4//4 
f 5//5 6//6 7//7 8//8 
f 3//3 5//5 8//8 4//4 
f 2//2 6//6 5//5 3//3 
f 1//1 7//7 6//6 2//2 
f 4//4 8//8 7//7 1//1 
# 6 polygons

